<?xml version="1.0" encoding="UTF-8"?>
<svg id="katman_2" data-name="katman 2" xmlns="http://www.w3.org/2000/svg" xmlns:xlink="http://www.w3.org/1999/xlink" viewBox="0 0 319.17 45.71">
  <defs>
    <style>
      .cls-1 {
        fill: url(#Adsız_degrade);
      }

      .cls-1, .cls-2, .cls-3 {
        fill-rule: evenodd;
        stroke-width: 0px;
      }

      .cls-2 {
        fill: #495057;
      }

      .cls-3 {
        fill: #1e64ff;
      }
    </style>
    <linearGradient id="Adsız_degrade" data-name="Adsız degrade" x1="-4004.19" y1="1400.42" x2="-4005.09" y2="1400.42" gradientTransform="translate(190718.53 48037.38) scale(47.62 -34.29)" gradientUnits="userSpaceOnUse">
      <stop offset="0" stop-color="#1e64ff"/>
      <stop offset="1" stop-color="#1e64ff" stop-opacity="0"/>
    </linearGradient>
  </defs>
  <g id="katman_1" data-name="katman 1">
    <g id="_05---Landings" data-name="05---Landings">
      <g id="_004.0.0-ShopList-LP" data-name="004.0.0-ShopList-LP">
        <g id="Group-4">
          <g id="Group-5">
            <g id="Brand_1--Logo_3--Subbrands_1--PWI_1--TR_3--OneLine" data-name="Brand/1--Logo/3--Subbrands/1--PWI/1--TR/3--OneLine">
              <g id="iyzico-ile-Ode_OneLine_TR" data-name="iyzico-ile-Ode OneLine TR">
                <g id="Group-3">
                  <path id="Fill-1" class="cls-1" d="M4.29,5.71C1.92,5.71,0,7.63,0,10v25.71c0,2.37,1.92,4.29,4.29,4.29h32.36c1.6,0,3.06-.89,3.8-2.31l6.69-12.86c.32-.61.48-1.28.48-1.94v-.07c0-.67-.17-1.33-.48-1.94l-6.69-12.86c-.74-1.42-2.2-2.31-3.8-2.31H4.29Z"/>
                </g>
                <g id="Group-21">
                  <path id="Combined-Shape" class="cls-3" d="M91.62,12.17c.83-1.6,2.8-2.22,4.41-1.39,1.6.83,2.23,2.81,1.39,4.41h0l-14.91,28.76c-.56,1.08-1.64,1.71-2.77,1.75-.55.03-1.12-.09-1.65-.37-1.6-.83-2.23-2.81-1.39-4.41h0l4.21-8.14-9.13-17.6c-.83-1.6-.21-3.58,1.39-4.41,1.6-.83,3.58-.21,4.41,1.39h0l7.01,13.52,7.01-13.52ZM151.61,9.97c3.54,0,6.86,1.38,9.36,3.88,1.27,1.28,1.27,3.35,0,4.63-1.28,1.27-3.35,1.27-4.63,0-1.27-1.27-2.94-1.96-4.74-1.96s-3.47.69-4.73,1.96c-1.27,1.26-1.96,2.94-1.96,4.73s.7,3.47,1.96,4.73c1.26,1.26,2.94,1.96,4.73,1.96s3.47-.7,4.74-1.96c1.28-1.28,3.35-1.28,4.63,0,1.27,1.28,1.27,3.35,0,4.62-2.5,2.5-5.83,3.88-9.36,3.88s-6.85-1.38-9.35-3.88c-2.5-2.49-3.88-5.82-3.88-9.35s1.38-6.86,3.88-9.36c2.5-2.5,5.82-3.88,9.35-3.88ZM178.05,9.97c7.3,0,13.23,5.94,13.23,13.24s-5.94,13.24-13.23,13.24-13.23-5.94-13.23-13.24,5.94-13.24,13.23-13.24ZM64.28,10.41c1.81,0,3.27,1.46,3.27,3.26h0v19.12c0,1.81-1.46,3.27-3.27,3.27s-3.27-1.46-3.27-3.27h0V13.68c0-1.8,1.46-3.26,3.27-3.26ZM117.41,10.41c.09,0,.17,0,.25,0h1.46s.07,0,.1,0h.4c.71.02,1.42.27,2,.77,1.38,1.15,1.56,3.22.4,4.6h0l-11.54,13.75h9.03c1.81,0,3.27,1.47,3.27,3.27s-1.47,3.27-3.27,3.27h-16.04c-.74,0-1.49-.25-2.1-.76-1.38-1.16-1.56-3.22-.4-4.6h0l11.54-13.74h-7.54c-1.81,0-3.27-1.47-3.27-3.28s1.46-3.27,3.27-3.27h2.81c.1,0,.2,0,.3,0h4.81c.12,0,.24,0,.36,0h4.15ZM130.83,10.41c1.81,0,3.27,1.46,3.27,3.26h0v19.12c0,1.81-1.46,3.27-3.27,3.27s-3.27-1.46-3.27-3.27h0V13.68c0-1.8,1.46-3.26,3.27-3.26ZM178.05,16.52c-3.69,0-6.69,3-6.69,6.69s3,6.7,6.69,6.7,6.7-3.01,6.7-6.7-3-6.69-6.7-6.69ZM64.28,0c1.99,0,3.61,1.62,3.61,3.61s-1.62,3.61-3.61,3.61-3.61-1.62-3.61-3.61,1.62-3.61,3.61-3.61ZM130.83,0c2,0,3.61,1.62,3.61,3.61s-1.62,3.61-3.61,3.61-3.61-1.62-3.61-3.61,1.62-3.61,3.61-3.61Z"/>
                </g>
                <path id="Combined-Shape-2" data-name="Combined-Shape" class="cls-2" d="M260.96,8.22c6.67,0,13.26,5.59,13.26,13.66s-6.59,13.66-13.26,13.66-13.26-5.58-13.26-13.66,6.59-13.66,13.26-13.66ZM294.26,7.95c1.1,0,2.06.92,2.06,2.03v23.49c0,1.11-.95,2.03-2.06,2.03s-2.02-.92-2.02-2.03v-2.07c-.27,1.72-2.63,4.13-6.25,4.13-4.23,0-9.29-3.29-9.29-10.21s5.1-10.18,9.29-10.18c2.82,0,5.26,1.46,6.25,3.67v-1.53c0-.11,0-.27.04-.38v-6.93c0-1.11.92-2.03,1.98-2.03ZM205.98,15.26c.84,0,1.56.73,1.56,1.61v16.99c0,.92-.72,1.65-1.56,1.65s-1.6-.73-1.6-1.65v-16.99c0-.88.72-1.61,1.6-1.61ZM213.37,7.95c.84,0,1.56.73,1.56,1.57v24.34c0,.84-.72,1.61-1.56,1.61s-1.6-.76-1.6-1.61V9.52c0-.84.72-1.57,1.6-1.57ZM228.11,15.14c4.34,0,9.56,3.44,9.56,9.64,0,1.22-.72,1.8-2.02,1.8l-14.02-.08c.34,4.29,3.62,6.31,6.89,6.31,1.75,0,3.16-.5,4.42-1.46.57-.38.92-.57,1.33-.57.73,0,1.18.5,1.18,1.19,0,.42-.19.84-.84,1.42-1.52,1.34-3.77,2.07-6.17,2.07-4.88,0-10.09-3.21-10.09-10.1s5.41-10.22,9.75-10.22ZM309.61,15.14c4.34,0,9.56,3.44,9.56,9.53,0,1.57-.88,2.18-2.51,2.18l-12.76-.04c.42,3.56,3.2,5.32,6.25,5.32,1.56,0,2.63-.38,3.81-1.11.65-.34,1.07-.61,1.6-.61.88,0,1.41.61,1.41,1.45,0,.5-.19,1.03-1.03,1.72-1.45,1.19-3.54,1.87-5.94,1.87-4.95,0-10.25-3.17-10.25-10.1s5.52-10.22,9.87-10.22ZM286.64,18.62c-2.78,0-5.9,2.18-5.9,6.7s3.12,6.73,5.9,6.73c2.59,0,5.79-1.99,5.79-6.73s-3.2-6.7-5.79-6.7ZM260.96,12.12c-4.65,0-8.95,3.94-8.95,9.76s4.3,9.72,8.95,9.72,8.95-3.9,8.95-9.72-4.27-9.76-8.95-9.76ZM228.11,17.94c-2.82,0-6.13,1.91-6.48,6.2h12.95c-.34-4.29-3.62-6.2-6.47-6.2ZM309.61,18.66c-2.51,0-5.37,1.61-5.71,5.24h11.35c-.34-3.64-3.08-5.24-5.64-5.24ZM205.98,7.57c.84,0,1.6.73,1.6,1.61s-.76,1.61-1.6,1.61-1.64-.73-1.64-1.61.76-1.61,1.64-1.61ZM265.65,1.25c1.22,0,2.21.99,2.21,2.18s-.99,2.18-2.21,2.18-2.21-.99-2.21-2.18.99-2.18,2.21-2.18ZM256.28,1.25c1.22,0,2.21.99,2.21,2.18s-.99,2.18-2.21,2.18-2.21-.99-2.21-2.18.99-2.18,2.21-2.18Z"/>
              </g>
            </g>
          </g>
        </g>
      </g>
    </g>
  </g>
</svg>